<svg width="36" height="36" viewBox="0 0 36 36" fill="none" xmlns="http://www.w3.org/2000/svg">
<circle cx="18" cy="18" r="18" fill="#3C50E0"/>
<path opacity="0.2" d="M5.27208 30.7279C1.89642 27.3523 1.51746e-07 22.7739 0 18C-1.51746e-07 13.2261 1.89642 8.64773 5.27208 5.27208C8.64773 1.89642 13.2261 5.12165e-07 18 0C22.7739 -5.12165e-07 27.3523 1.89642 30.7279 5.27208L5.27208 30.7279Z" fill="white"/>
<g opacity="0.2">
<path d="M13.5773 0.547532C13.9902 0.44321 14.4088 0.353156 14.8325 0.277924C13.4581 2.87144 12.1484 6.86026 12.5866 10.4755C12.8055 12.2812 13.458 13.979 14.7424 15.376C16.0269 16.773 17.9773 17.906 20.8559 18.5228C28.2999 20.118 31.9337 22.8104 33.2214 25.6719C33.4099 26.0907 33.5463 26.5089 33.6367 26.9231C33.3691 27.3912 33.081 27.846 32.7737 28.2866C32.7833 27.5683 32.6432 26.8239 32.3095 26.0822C31.2207 23.6627 27.9892 21.0741 20.6464 19.5006C17.6103 18.85 15.4591 17.6329 14.0062 16.0528C12.5533 14.4726 11.8327 12.5661 11.5939 10.5959C11.163 7.04082 12.2927 3.23131 13.5773 0.547532Z" fill="white"/>
<path d="M10.4788 1.64215C11.1695 1.32402 11.8838 1.04835 12.6184 0.818493C10.5012 2.87636 8.10529 6.10775 7.30224 9.5521C6.8785 11.3696 6.90144 13.2301 7.62396 15.0142C8.34613 16.7975 9.78596 18.5507 12.2765 20.1222C18.7252 24.1912 21.2029 28.0199 21.4173 31.207C21.545 33.1052 20.8666 34.7023 19.8414 35.907C19.3473 35.9572 18.8474 35.9874 18.3423 35.9968C19.6198 34.9123 20.5545 33.2789 20.4196 31.2741C20.2375 28.5679 18.0971 24.9773 11.7429 20.9679C9.11217 19.308 7.5128 17.4039 6.69708 15.3896C5.88172 13.3762 5.86808 11.2992 6.32836 9.32504C7.00493 6.42317 8.71214 3.70901 10.4788 1.64215Z" fill="white"/>
<path d="M14.9435 35.7415C13.4421 33.9336 10.5477 32.1632 5.45938 30.912C5.03312 30.4979 4.6273 30.0629 4.24358 29.6086C4.3013 29.6216 4.35941 29.6343 4.41791 29.6468C11.0985 31.0784 14.7103 33.3937 16.3116 35.9218C15.8503 35.8789 15.394 35.8186 14.9435 35.7415Z" fill="white"/>
<path d="M17.0289 35.9742C17.3506 35.9914 17.6746 36 18.0006 36C18.0461 36 18.0916 35.9999 18.1371 35.9995C18.862 34.4524 19.0747 32.5681 18.2214 30.6719C16.9337 27.8104 13.2999 25.118 5.85589 23.5228C3.31777 22.9789 1.50125 22.0338 0.226562 20.8602C0.309497 21.3796 0.414654 21.8917 0.541027 22.3953C1.85809 23.3246 3.53907 24.0491 5.64636 24.5006C12.9892 26.0741 16.2207 28.6627 17.3095 31.0822C18.0922 32.8217 17.8097 34.5757 17.0289 35.9742Z" fill="white"/>
<path d="M33.8832 9.52241C33.8496 9.51513 33.8159 9.50787 33.7821 9.50063C30.746 8.85003 28.5948 7.63295 27.142 6.05281C25.8746 4.67439 25.1645 3.04775 24.8452 1.34707C25.2324 1.50638 25.6128 1.67879 25.9859 1.86376C26.3248 3.14689 26.9289 4.3436 27.8781 5.37598C29.0389 6.63846 30.7435 7.68528 33.1855 8.33045C33.4327 8.71792 33.6655 9.11549 33.8832 9.52241Z" fill="white"/>
<path d="M35.3881 13.3273C35.529 13.8528 35.6467 14.3878 35.74 14.9311C33.9611 13.2262 30.827 11.6108 25.6464 10.5006C22.6103 9.85003 20.4591 8.63295 19.0062 7.05281C17.5533 5.47258 16.8327 3.56611 16.5939 1.59587C16.5324 1.0883 16.5027 0.57555 16.5007 0.0616264C16.8315 0.0343344 17.1649 0.0159907 17.5006 0.00683594C17.5006 0.500272 17.5279 0.991257 17.5866 1.47554C17.8055 3.28122 18.458 4.97904 19.7424 6.37598C21.0269 7.77301 22.9773 8.90598 25.8559 9.52282C30.2728 10.4693 33.3482 11.8021 35.3881 13.3273Z" fill="white"/>
<path d="M15.9482 0.115752C15.5802 0.157517 15.2156 0.210378 14.8547 0.273989C14.2421 2.36597 13.8969 4.69971 14.1676 6.93303C14.4065 8.90327 15.127 10.8097 16.58 12.39C18.0328 13.9701 20.184 15.1872 23.2201 15.8378C30.5629 17.4112 33.7944 19.9998 34.8832 22.4194C35.0198 22.7229 35.1239 23.0268 35.1986 23.3292C35.3672 22.7845 35.5106 22.2287 35.6276 21.6633C34.2078 18.9319 30.573 16.3907 23.4296 14.86C20.551 14.2431 18.6006 13.1102 17.3161 11.7131C16.0317 10.3162 15.3792 8.61838 15.1604 6.8127C14.8903 4.58422 15.2843 2.21381 15.9482 0.115752Z" fill="white"/>
</g>
<path fill-rule="evenodd" clip-rule="evenodd" d="M14.5 13C14.5 11.3431 13.1569 10 11.5 10V19.5C11.5 23.0899 14.4101 26 18 26C21.5899 26 24.5 23.0899 24.5 19.5C24.5 15.9101 21.5899 13 18 13H14.5ZM14.5 16H18C19.933 16 21.5 17.567 21.5 19.5C21.5 21.433 19.933 23 18 23C16.067 23 14.5 21.433 14.5 19.5V16Z" fill="white"/>
</svg>
